<svg width="376" height="111" viewBox="0 0 376 111" fill="none" xmlns="http://www.w3.org/2000/svg">
<path d="M44 0L0 111L64 81L21 84L60 32L44 0Z" fill="#008EE0"/>
<path d="M27 62L44 0L0 111L27 62Z" fill="#7BC7E9"/>
<path d="M0 111L10 93L63.5 81L0 111Z" fill="#008EE0"/>
<path d="M10 93L27 62L21 84L64 81L10 93Z" fill="#00B3E3"/>
<path d="M27 62L44 0L52.5 17L27 62Z" fill="#63B3E6"/>
<mask id="mask0" mask-type="alpha" maskUnits="userSpaceOnUse" x="44" y="36" width="49" height="74">
<path d="M93 110L44 60L62 36L93 110Z" fill="#028FD7"/>
</mask>
<g mask="url(#mask0)">
<path d="M93 110L44 60L62 36L93 110Z" fill="#7BCEEC"/>
<path d="M93.5 110.5L52 48.5L43.5 60L93.5 110.5Z" fill="#00B4E7"/>
<path d="M63 65L62 36L93 110L63 65Z" fill="#5FB3E2"/>
<path d="M64 81L63 65L93 110L64 81Z" fill="#028FD7"/>
</g>
<path d="M127.288 67.856L131.752 81H137.518L123.258 39.212H116.748L102.55 81H108.13L112.47 67.856H127.288ZM113.586 63.64L117.678 51.55C118.484 49.008 119.166 46.466 119.786 43.986H119.91C120.53 46.404 121.15 48.884 122.08 51.612L126.172 63.64H113.586Z" fill="black"/>
<path d="M150.495 80.876C153.223 81.186 156.447 81.372 160.291 81.372C168.413 81.372 174.861 79.264 178.767 75.358C182.673 71.514 184.781 65.934 184.781 59.114C184.781 52.356 182.611 47.52 178.891 44.11C175.233 40.7 169.715 38.902 161.965 38.902C157.687 38.902 153.781 39.274 150.495 39.77V80.876ZM155.889 43.738C157.315 43.428 159.423 43.18 162.213 43.18C173.621 43.18 179.201 49.442 179.139 59.3C179.139 70.584 172.877 77.032 161.345 77.032C159.237 77.032 157.253 76.97 155.889 76.722V43.738Z" fill="black"/>
<path d="M234.878 81H240.148L237.544 39.212H230.662L223.222 59.424C221.362 64.694 219.874 69.282 218.82 73.498H218.634C217.58 69.158 216.154 64.57 214.418 59.424L207.288 39.212H200.406L197.492 81H202.638L203.754 63.082C204.126 56.82 204.436 49.814 204.56 44.606H204.684C205.862 49.566 207.536 54.96 209.52 60.85L216.278 80.752H220.37L227.748 60.478C229.856 54.774 231.592 49.504 233.018 44.606H233.204C233.142 49.814 233.514 56.82 233.824 62.648L234.878 81Z" fill="black"/>
<path d="M255.258 39.212V81H260.652V39.212H255.258Z" fill="black"/>
<path d="M281.996 81V63.144C281.996 56.2 281.872 51.178 281.562 45.908L281.748 45.846C283.856 50.372 286.646 55.146 289.56 59.796L302.828 81H308.284V39.212H303.2V56.696C303.2 63.206 303.324 68.29 303.82 73.87L303.696 73.932C301.712 69.654 299.294 65.252 296.194 60.354L282.802 39.212H276.912V81H281.996Z" fill="black"/>
<path d="M324.541 39.212V81H329.935V39.212H324.541Z" fill="black"/>
<path d="M375.335 81L362.315 59.548L375.025 39.212H368.825L363.121 49.008C361.571 51.674 360.517 53.596 359.339 56.076H359.153C358.037 53.844 356.859 51.736 355.309 49.008L349.791 39.212H343.529L355.805 59.858L343.033 81H349.233L354.255 71.824C356.425 68.166 357.603 65.934 358.781 63.516H358.905C360.207 65.934 361.571 68.228 363.741 71.762L369.073 81H375.335Z" fill="black"/>
</svg>
